<svg id="Capa_1" enable-background="new 0 0 512 512" height="512" viewBox="0 0 512 512" width="512" xmlns="http://www.w3.org/2000/svg"><g><path d="m356 392h-200c-4.336 0-8.459-1.876-11.308-5.145s-4.145-7.61-3.552-11.905l40-290c1.024-7.422 7.368-12.95 14.86-12.95h120c7.492 0 13.836 5.528 14.859 12.95l40 290c.593 4.295-.703 8.637-3.552 11.905s-6.971 5.145-11.307 5.145z" fill="#edf6ff"/><path d="m367.308 386.855c2.849-3.269 4.145-7.61 3.552-11.905l-40-290c-1.024-7.422-7.368-12.95-14.86-12.95h-60v320h100c4.336 0 8.459-1.876 11.308-5.145z" fill="#d5e7fe"/><path d="m330.822 84.749c-.403-2.655-1.51-5.206-3.299-7.352l-60-72c-2.849-3.419-7.071-5.397-11.523-5.397s-8.674 1.978-11.523 5.397l-60 72c-1.787 2.145-2.894 4.694-3.298 7.347h149.643z" fill="#d5e7fe"/><path d="m330.822 84.749c-.403-2.655-1.51-5.206-3.299-7.352l-60-72c-2.849-3.419-7.071-5.397-11.523-5.397v84.745h74.821c.001.001.001.003.001.004z" fill="#b5dbff"/><path d="m376 452h-240c-8.284 0-15-6.716-15-15v-60c0-8.284 6.716-15 15-15h240c8.284 0 15 6.716 15 15v60c0 8.284-6.716 15-15 15z" fill="#d5e7fe"/><path d="m376 362h-120v90h120c8.284 0 15-6.716 15-15v-60c0-8.284-6.716-15-15-15z" fill="#b5dbff"/><path d="m416 422h-320c-8.284 0-15 6.716-15 15v60h350v-60c0-8.284-6.716-15-15-15z" fill="#edf6ff"/><path d="m431 437c0-8.284-6.716-15-15-15h-160v75h175z" fill="#d5e7fe"/><path d="m497 512h-482c-8.284 0-15-6.716-15-15s6.716-15 15-15h482c8.284 0 15 6.716 15 15s-6.716 15-15 15z" fill="#8be152"/><path d="m497 482h-241v30h241c8.284 0 15-6.716 15-15s-6.716-15-15-15z" fill="#4ecb35"/></g></svg>